<svg id="Layer_1" data-name="Layer 1" xmlns="http://www.w3.org/2000/svg" width="974" height="276" viewBox="0 0 974 276"><defs><style>.cls-1,.cls-3{fill:none;}.cls-1,.cls-2{stroke:#000;}.cls-1,.cls-2,.cls-3,.cls-4{stroke-miterlimit:10;}.cls-2,.cls-4{fill:#fff;}.cls-3,.cls-4{stroke:#999;}.cls-5{fill:#999;}</style></defs><rect class="cls-1" x="22.833" y="17.833" width="444" height="162"/><polyline class="cls-2" points="205.833 228.333 205.833 256.833 907.833 256.833 907.833 228.333"/><line class="cls-2" x1="880.333" y1="229.833" x2="233.333" y2="229.833"/><polyline class="cls-2" points="233.833 229.333 233.833 156.833 205.833 156.833 205.833 228.333"/><polyline class="cls-1" points="907.833 229.333 907.833 179.833 917.048 179.833 893.836 157.06 870.619 179.833 879.833 179.833 879.833 229.333"/><rect class="cls-1" x="127.833" y="43.833" width="184" height="109"/><rect class="cls-3" x="622.833" y="43.833" width="112" height="109"/><rect class="cls-4" x="412.833" y="43.833" width="109" height="109"/><path d="M178.412,66.988c0,3.25-1.974,4.973-4.383,4.973-2.494,0-4.245-1.933-4.245-4.791,0-3,1.863-4.958,4.384-4.958C176.745,62.212,178.412,64.187,178.412,66.988Zm-7.326.154c0,2.018,1.093,3.825,3.012,3.825s3.025-1.78,3.025-3.923c0-1.877-.98-3.838-3.01-3.838S171.086,65.069,171.086,67.142Z"/><path d="M179.99,62.492a11.814,11.814,0,0,1,2.227-.2,3.9,3.9,0,0,1,2.591.686,1.982,1.982,0,0,1,.785,1.667,2.241,2.241,0,0,1-1.6,2.073v.028a2.434,2.434,0,0,1,1.948,2.368,2.551,2.551,0,0,1-.8,1.891,4.747,4.747,0,0,1-3.264.882,14.244,14.244,0,0,1-1.891-.112Zm1.218,3.866h1.107c1.289,0,2.045-.672,2.045-1.583,0-1.106-.84-1.541-2.073-1.541a5.244,5.244,0,0,0-1.079.084Zm0,4.525a6.545,6.545,0,0,0,1.023.055c1.261,0,2.424-.462,2.424-1.835,0-1.288-1.108-1.82-2.438-1.82h-1.009Z"/><path d="M189.511,62.366h1.218v6.317c0,2.508-1.233,3.278-2.858,3.278a3.944,3.944,0,0,1-1.3-.224l.182-.994a2.911,2.911,0,0,0,1.023.182c1.093,0,1.737-.491,1.737-2.34Z"/><path d="M197.647,67.381h-3.67v3.4h4.09v1.022h-5.309V62.366h5.1v1.023h-3.88v2.983h3.67Z"/><path d="M206.243,71.5a6.048,6.048,0,0,1-2.493.448,4.413,4.413,0,0,1-4.665-4.777,4.7,4.7,0,0,1,4.931-4.958,5.06,5.06,0,0,1,2.241.42l-.294,1a4.422,4.422,0,0,0-1.905-.393c-2.213,0-3.684,1.415-3.684,3.894,0,2.312,1.331,3.8,3.628,3.8a4.888,4.888,0,0,0,1.99-.393Z"/><path d="M209.951,63.4h-2.872V62.366h6.99V63.4h-2.886v8.405h-1.232Z"/><path d="M218.083,62.478a14.144,14.144,0,0,1,2.34-.182,3.884,3.884,0,0,1,2.648.784,2.545,2.545,0,0,1,.826,1.976,2.778,2.778,0,0,1-.729,2.017,3.912,3.912,0,0,1-2.885,1.036,4.2,4.2,0,0,1-.981-.084v3.782h-1.219Zm1.219,4.553a4.154,4.154,0,0,0,1.009.1c1.471,0,2.367-.714,2.367-2.017,0-1.246-.883-1.848-2.227-1.848a5.193,5.193,0,0,0-1.149.1Z"/><path d="M225.882,68.837l-.98,2.97h-1.261l3.207-9.441h1.471l3.221,9.441h-1.3l-1.009-2.97Zm3.1-.952-.925-2.718c-.21-.616-.351-1.176-.49-1.722h-.028c-.14.56-.294,1.134-.477,1.708l-.924,2.732Z"/><path d="M232.923,71.807V62.366h1.331l3.026,4.776a26.744,26.744,0,0,1,1.695,3.068L239,70.2c-.111-1.261-.139-2.409-.139-3.88v-3.95h1.148v9.441h-1.232l-3-4.791a29.976,29.976,0,0,1-1.765-3.151l-.042.014c.07,1.19.1,2.325.1,3.894v4.034Z"/><path d="M242.135,71.807V62.366h1.331l3.026,4.776a26.744,26.744,0,0,1,1.7,3.068l.027-.014c-.111-1.261-.139-2.409-.139-3.88v-3.95h1.148v9.441h-1.232l-3-4.791a29.8,29.8,0,0,1-1.765-3.151l-.042.014c.07,1.19.1,2.325.1,3.894v4.034Z"/><path d="M256.236,67.381h-3.67v3.4h4.09v1.022h-5.309V62.366h5.1v1.023h-3.88v2.983h3.67Z"/><path d="M258.235,62.492a12.7,12.7,0,0,1,2.34-.2,3.864,3.864,0,0,1,2.731.77,2.354,2.354,0,0,1,.742,1.793,2.478,2.478,0,0,1-1.779,2.409v.042a2.356,2.356,0,0,1,1.387,1.906,15.039,15.039,0,0,0,.728,2.591h-1.261a12.245,12.245,0,0,1-.63-2.255c-.28-1.3-.785-1.793-1.891-1.835h-1.149v4.09h-1.218Zm1.218,4.3H260.7c1.3,0,2.128-.714,2.128-1.793,0-1.218-.882-1.751-2.17-1.765a4.963,4.963,0,0,0-1.206.113Z"/><path d="M29.858,24.262H26.987V23.226h6.989v1.036H31.09v8.405H29.858Z"/><path d="M35.023,23.352a12.7,12.7,0,0,1,2.34-.2,3.864,3.864,0,0,1,2.731.77,2.354,2.354,0,0,1,.742,1.793,2.478,2.478,0,0,1-1.779,2.409v.042a2.356,2.356,0,0,1,1.387,1.906,15.039,15.039,0,0,0,.728,2.591H39.911a12.184,12.184,0,0,1-.629-2.256c-.281-1.3-.786-1.793-1.892-1.835H36.242v4.091H35.023Zm1.219,4.3h1.247c1.3,0,2.129-.714,2.129-1.793,0-1.219-.883-1.751-2.171-1.765a5.015,5.015,0,0,0-1.205.112Z"/><path d="M44.152,29.7l-.981,2.97H41.91l3.208-9.441h1.47l3.222,9.441h-1.3L47.5,29.7Zm3.095-.953-.924-2.717c-.21-.616-.351-1.177-.491-1.722H45.8c-.14.56-.294,1.134-.477,1.708L44.4,28.744Z"/><path d="M57.58,32.359a6.048,6.048,0,0,1-2.493.448,4.413,4.413,0,0,1-4.665-4.777,4.7,4.7,0,0,1,4.931-4.958,5.06,5.06,0,0,1,2.241.42l-.294.995a4.422,4.422,0,0,0-1.9-.393c-2.213,0-3.684,1.415-3.684,3.894,0,2.312,1.331,3.8,3.628,3.8a4.88,4.88,0,0,0,1.989-.393Z"/><path d="M59.1,23.226h1.219v4.552h.042c.252-.364.5-.7.742-1.008l2.886-3.544H65.5l-3.418,4.006,3.685,5.435H64.326L61.217,28.03l-.9,1.037v3.6H59.1Z"/><path d="M69.49,31.182a4.314,4.314,0,0,0,2.185.616c1.246,0,1.975-.658,1.975-1.611,0-.882-.5-1.386-1.78-1.877-1.54-.546-2.493-1.344-2.493-2.675,0-1.471,1.219-2.563,3.054-2.563a4.289,4.289,0,0,1,2.087.462l-.336,1a3.749,3.749,0,0,0-1.793-.449c-1.288,0-1.778.77-1.778,1.415,0,.882.574,1.317,1.877,1.821,1.6.616,2.409,1.386,2.409,2.773,0,1.457-1.079,2.718-3.306,2.718a4.873,4.873,0,0,1-2.41-.6Z"/><path d="M77.779,23.226v9.441H76.56V23.226Z"/><path d="M87.091,32.246a8.761,8.761,0,0,1-2.9.519A4.435,4.435,0,0,1,79.345,28a4.735,4.735,0,0,1,5.113-4.874,5.841,5.841,0,0,1,2.354.434l-.3.994a4.893,4.893,0,0,0-2.087-.406,3.531,3.531,0,0,0-3.8,3.8,3.46,3.46,0,0,0,3.642,3.81A3.978,3.978,0,0,0,85.9,31.5V28.689H83.982v-.981h3.109Z"/><path d="M88.95,32.667V23.226h1.331L93.306,28A26.744,26.744,0,0,1,95,31.07l.028-.014c-.112-1.261-.14-2.409-.14-3.88v-3.95h1.148v9.441H94.805l-3-4.791a30.067,30.067,0,0,1-1.765-3.152L90,24.739c.071,1.19.1,2.325.1,3.894v4.034Z"/><path d="M99.689,29.7l-.981,2.97h-1.26l3.207-9.441h1.47l3.222,9.441h-1.3l-1.008-2.97Zm3.1-.953-.925-2.717c-.21-.616-.351-1.177-.491-1.722h-.028c-.14.56-.294,1.134-.476,1.708l-.924,2.731Z"/><path d="M106.73,23.226h1.219v8.418h4.034v1.023H106.73Z"/><path d="M122.9,32.359a6.055,6.055,0,0,1-2.493.448,4.413,4.413,0,0,1-4.666-4.777,4.7,4.7,0,0,1,4.931-4.958,5.06,5.06,0,0,1,2.241.42l-.294.995a4.422,4.422,0,0,0-1.905-.393c-2.213,0-3.683,1.415-3.683,3.894,0,2.312,1.331,3.8,3.627,3.8a4.885,4.885,0,0,0,1.99-.393Z"/><path d="M125.644,23.226v3.95h4.566v-3.95h1.233v9.441H130.21V28.241h-4.566v4.426h-1.219V23.226Z"/><path d="M135.08,29.7l-.98,2.97h-1.261l3.207-9.441h1.471l3.222,9.441h-1.3l-1.009-2.97Zm3.1-.953-.925-2.717c-.21-.616-.35-1.177-.49-1.722h-.028c-.14.56-.294,1.134-.477,1.708l-.924,2.731Z"/><path d="M143.34,23.226v9.441h-1.219V23.226Z"/><path d="M145.467,32.667V23.226H146.8L149.824,28a26.744,26.744,0,0,1,1.695,3.068l.027-.014c-.111-1.261-.139-2.409-.139-3.88v-3.95h1.148v9.441h-1.232l-3-4.791a29.709,29.709,0,0,1-1.765-3.152l-.042.015c.07,1.19.1,2.325.1,3.894v4.034Z"/><path class="cls-5" d="M650.606,100.324c-.07-1.317-.154-2.9-.14-4.077h-.042c-.322,1.107-.715,2.284-1.19,3.586l-1.667,4.581h-.925l-1.526-4.5c-.449-1.331-.828-2.55-1.093-3.671h-.029c-.028,1.177-.1,2.76-.181,4.175l-.253,4.048H642.4l.658-9.441h1.555l1.611,4.567c.392,1.162.714,2.2.952,3.179h.042c.238-.952.574-1.989,1-3.179l1.681-4.567h1.555l.588,9.441h-1.191Z"/><path class="cls-5" d="M655.293,101.5l-.98,2.97h-1.261l3.207-9.441h1.471l3.221,9.441h-1.3l-1.009-2.97Zm3.1-.952-.925-2.718c-.21-.616-.35-1.176-.49-1.722h-.028c-.14.56-.294,1.134-.477,1.708l-.924,2.732Z"/><path class="cls-5" d="M662.165,102.985a4.311,4.311,0,0,0,2.186.616c1.246,0,1.975-.658,1.975-1.61,0-.883-.5-1.387-1.78-1.877-1.54-.547-2.493-1.345-2.493-2.676,0-1.47,1.219-2.563,3.054-2.563a4.289,4.289,0,0,1,2.087.462l-.336.995a3.751,3.751,0,0,0-1.793-.448c-1.288,0-1.779.77-1.779,1.414,0,.883.575,1.317,1.877,1.821,1.6.617,2.41,1.387,2.41,2.773,0,1.457-1.08,2.718-3.306,2.718a4.885,4.885,0,0,1-2.41-.6Z"/><path class="cls-5" d="M671.029,96.065h-2.871V95.029h6.989v1.036h-2.886v8.405h-1.232Z"/><path class="cls-5" d="M681.082,100.044h-3.67v3.4h4.09v1.022h-5.308V95.029h5.1v1.023h-3.88v2.983h3.67Z"/><path class="cls-5" d="M683.081,95.155a12.71,12.71,0,0,1,2.34-.2,3.865,3.865,0,0,1,2.732.77,2.357,2.357,0,0,1,.742,1.793,2.477,2.477,0,0,1-1.779,2.409v.042a2.353,2.353,0,0,1,1.386,1.906,15.1,15.1,0,0,0,.729,2.591H687.97a12.245,12.245,0,0,1-.63-2.255c-.28-1.3-.785-1.793-1.891-1.835H684.3v4.09h-1.219Zm1.219,4.3h1.247c1.3,0,2.129-.714,2.129-1.793,0-1.218-.883-1.751-2.171-1.765a4.946,4.946,0,0,0-1.205.113Z"/><path class="cls-5" d="M693.581,95.155a11.826,11.826,0,0,1,2.228-.2,3.9,3.9,0,0,1,2.591.686,1.982,1.982,0,0,1,.785,1.667,2.243,2.243,0,0,1-1.6,2.073v.028a2.435,2.435,0,0,1,1.948,2.368,2.551,2.551,0,0,1-.8,1.891,4.748,4.748,0,0,1-3.264.882,14.275,14.275,0,0,1-1.892-.112Zm1.219,3.866h1.107c1.289,0,2.044-.672,2.044-1.583,0-1.106-.839-1.541-2.073-1.541a5.232,5.232,0,0,0-1.078.084Zm0,4.525a6.537,6.537,0,0,0,1.023.055c1.26,0,2.423-.462,2.423-1.835,0-1.288-1.107-1.82-2.437-1.82H694.8Z"/><path class="cls-5" d="M702.388,95.029v5.589c0,2.115.938,3.012,2.2,3.012,1.4,0,2.3-.925,2.3-3.012V95.029h1.234v5.505c0,2.9-1.528,4.09-3.573,4.09-1.932,0-3.389-1.107-3.389-4.034V95.029Z"/><path class="cls-5" d="M710.059,102.985a4.31,4.31,0,0,0,2.185.616c1.247,0,1.975-.658,1.975-1.61,0-.883-.5-1.387-1.779-1.877-1.54-.547-2.493-1.345-2.493-2.676,0-1.47,1.218-2.563,3.053-2.563a4.289,4.289,0,0,1,2.087.462l-.336.995a3.744,3.744,0,0,0-1.793-.448c-1.288,0-1.779.77-1.779,1.414,0,.883.575,1.317,1.878,1.821,1.6.617,2.409,1.387,2.409,2.773,0,1.457-1.079,2.718-3.306,2.718a4.885,4.885,0,0,1-2.41-.6Z"/><path d="M427.1,247.156a4.311,4.311,0,0,0,2.186.616c1.246,0,1.974-.658,1.974-1.611,0-.882-.5-1.386-1.779-1.876-1.54-.547-2.493-1.345-2.493-2.676,0-1.47,1.218-2.563,3.053-2.563a4.289,4.289,0,0,1,2.087.462l-.336.995a3.744,3.744,0,0,0-1.793-.448c-1.288,0-1.778.77-1.778,1.414,0,.882.574,1.317,1.877,1.821,1.6.617,2.409,1.387,2.409,2.774,0,1.456-1.079,2.717-3.305,2.717a4.886,4.886,0,0,1-2.411-.6Z"/><path d="M435.385,239.2v9.441h-1.219V239.2Z"/><path d="M444.7,248.221a8.794,8.794,0,0,1-2.9.518,4.435,4.435,0,0,1-4.847-4.763,4.736,4.736,0,0,1,5.114-4.874,5.836,5.836,0,0,1,2.353.434l-.3,1a4.872,4.872,0,0,0-2.087-.407,3.531,3.531,0,0,0-3.8,3.8,3.46,3.46,0,0,0,3.641,3.81,3.974,3.974,0,0,0,1.625-.252v-2.815h-1.919v-.981h3.11Z"/><path d="M446.556,248.641V239.2h1.331l3.025,4.776a26.609,26.609,0,0,1,1.7,3.068l.027-.014c-.111-1.261-.14-2.409-.14-3.88V239.2h1.149v9.441h-1.233l-3-4.791a29.962,29.962,0,0,1-1.764-3.151l-.042.014c.07,1.19.1,2.325.1,3.894v4.034Z"/><path d="M457.3,245.671l-.98,2.97h-1.261l3.207-9.441h1.471l3.221,9.441h-1.3l-1.008-2.97Zm3.1-.952L459.466,242c-.21-.616-.35-1.176-.49-1.722h-.028c-.14.56-.294,1.134-.477,1.708l-.924,2.732Z"/><path d="M464.335,239.2h1.219v8.418h4.034v1.023h-5.253Z"/><path d="M473.911,239.326a12.71,12.71,0,0,1,2.34-.2,3.866,3.866,0,0,1,2.732.77,2.357,2.357,0,0,1,.742,1.793,2.478,2.478,0,0,1-1.779,2.409v.042a2.353,2.353,0,0,1,1.386,1.906,15.1,15.1,0,0,0,.729,2.591H478.8a12.245,12.245,0,0,1-.63-2.255c-.28-1.3-.785-1.793-1.891-1.835H475.13v4.09h-1.219Zm1.219,4.3h1.247c1.3,0,2.129-.714,2.129-1.793,0-1.218-.883-1.751-2.171-1.765a4.946,4.946,0,0,0-1.2.113Z"/><path d="M489.553,243.823c0,3.249-1.975,4.972-4.384,4.972-2.494,0-4.245-1.933-4.245-4.791,0-3,1.863-4.958,4.385-4.958C487.886,239.046,489.553,241.021,489.553,243.823Zm-7.326.153c0,2.017,1.093,3.825,3.012,3.825s3.025-1.78,3.025-3.923c0-1.877-.98-3.838-3.011-3.838S482.227,241.9,482.227,243.976Z"/><path d="M492.35,239.2v5.589c0,2.115.938,3.012,2.2,3.012,1.4,0,2.3-.925,2.3-3.012V239.2h1.233v5.505c0,2.9-1.527,4.09-3.572,4.09-1.932,0-3.389-1.107-3.389-4.034V239.2Z"/><path d="M501.982,240.237h-2.871V239.2H506.1v1.037h-2.886v8.4h-1.232Z"/><path d="M512.035,244.215h-3.669v3.4h4.089v1.023h-5.308V239.2h5.1v1.022h-3.879v2.984h3.669Z"/><path d="M514.035,239.326a17.461,17.461,0,0,1,2.591-.2,5.414,5.414,0,0,1,3.825,1.176,4.354,4.354,0,0,1,1.33,3.39,4.99,4.99,0,0,1-1.359,3.67,5.817,5.817,0,0,1-4.175,1.359,19.659,19.659,0,0,1-2.212-.112Zm1.218,8.349a7.847,7.847,0,0,0,1.233.069c2.605,0,4.02-1.457,4.02-4.006.014-2.227-1.247-3.641-3.824-3.641a6.953,6.953,0,0,0-1.429.125Z"/><path d="M526.326,239.326a17.475,17.475,0,0,1,2.592-.2,5.414,5.414,0,0,1,3.825,1.176,4.354,4.354,0,0,1,1.33,3.39,4.99,4.99,0,0,1-1.359,3.67,5.817,5.817,0,0,1-4.175,1.359,19.692,19.692,0,0,1-2.213-.112Zm1.219,8.349a7.847,7.847,0,0,0,1.233.069c2.605,0,4.02-1.457,4.02-4.006.014-2.227-1.247-3.641-3.824-3.641a6.953,6.953,0,0,0-1.429.125Z"/><path d="M536.868,239.2v9.441H535.65V239.2Z"/><path d="M539,239.326a12.71,12.71,0,0,1,2.34-.2,3.865,3.865,0,0,1,2.732.77,2.357,2.357,0,0,1,.742,1.793,2.478,2.478,0,0,1-1.779,2.409v.042a2.353,2.353,0,0,1,1.386,1.906,15.1,15.1,0,0,0,.729,2.591h-1.261a12.245,12.245,0,0,1-.63-2.255c-.28-1.3-.785-1.793-1.891-1.835h-1.149v4.09H539Zm1.219,4.3h1.247c1.3,0,2.129-.714,2.129-1.793,0-1.218-.883-1.751-2.171-1.765a4.946,4.946,0,0,0-1.2.113Z"/><path d="M551.416,244.215h-3.67v3.4h4.09v1.023h-5.308V239.2h5.1v1.022h-3.88v2.984h3.67Z"/><path d="M560.014,248.333a6.052,6.052,0,0,1-2.493.448A4.413,4.413,0,0,1,552.856,244a4.7,4.7,0,0,1,4.93-4.958,5.069,5.069,0,0,1,2.242.42l-.294.994a4.454,4.454,0,0,0-1.906-.392c-2.212,0-3.683,1.415-3.683,3.894,0,2.312,1.331,3.8,3.628,3.8a4.88,4.88,0,0,0,1.989-.393Z"/><path d="M563.721,240.237H560.85V239.2h6.989v1.037h-2.886v8.4h-1.232Z"/><path d="M568.886,239.2h1.219v8.418h4.034v1.023h-5.253Z"/><path d="M576.419,248.641v-4.006l-2.984-5.435h1.388l1.33,2.605c.364.715.644,1.289.938,1.947h.028c.266-.616.588-1.232.953-1.947l1.359-2.605h1.387l-3.166,5.421v4.02Z"/><path d="M586.078,240.237h-2.871V239.2h6.99v1.037h-2.886v8.4h-1.233Z"/><path d="M598.934,243.823c0,3.249-1.975,4.972-4.384,4.972-2.494,0-4.245-1.933-4.245-4.791,0-3,1.863-4.958,4.385-4.958C597.267,239.046,598.934,241.021,598.934,243.823Zm-7.326.153c0,2.017,1.093,3.825,3.011,3.825,1.934,0,3.026-1.78,3.026-3.923,0-1.877-.981-3.838-3.011-3.838S591.608,241.9,591.608,243.976Z"/><path d="M611.547,243.823c0,3.249-1.974,4.972-4.384,4.972-2.494,0-4.245-1.933-4.245-4.791,0-3,1.864-4.958,4.385-4.958C609.88,239.046,611.547,241.021,611.547,243.823Zm-7.326.153c0,2.017,1.093,3.825,3.012,3.825s3.025-1.78,3.025-3.923c0-1.877-.98-3.838-3.011-3.838S604.221,241.9,604.221,243.976Z"/><path d="M613.125,239.326a11.826,11.826,0,0,1,2.228-.2,3.9,3.9,0,0,1,2.591.686,1.982,1.982,0,0,1,.785,1.667,2.243,2.243,0,0,1-1.6,2.073v.028a2.433,2.433,0,0,1,1.947,2.367,2.551,2.551,0,0,1-.8,1.892,4.748,4.748,0,0,1-3.264.882,14.275,14.275,0,0,1-1.892-.112Zm1.219,3.866h1.107c1.289,0,2.044-.672,2.044-1.583,0-1.106-.839-1.541-2.073-1.541a5.232,5.232,0,0,0-1.078.084Zm0,4.525a6.537,6.537,0,0,0,1.023.055c1.26,0,2.423-.462,2.423-1.835,0-1.288-1.107-1.82-2.437-1.82h-1.009Z"/><path d="M622.647,239.2h1.218v6.317c0,2.508-1.233,3.278-2.858,3.278a3.955,3.955,0,0,1-1.3-.224l.183-1a2.882,2.882,0,0,0,1.023.183c1.092,0,1.737-.491,1.737-2.34Z"/><path d="M630.782,244.215h-3.67v3.4H631.2v1.023h-5.308V239.2h5.1v1.022h-3.88v2.984h3.67Z"/><path d="M639.378,248.333a6.048,6.048,0,0,1-2.493.448A4.413,4.413,0,0,1,632.22,244a4.7,4.7,0,0,1,4.931-4.958,5.064,5.064,0,0,1,2.241.42l-.294.994a4.453,4.453,0,0,0-1.9-.392c-2.213,0-3.684,1.415-3.684,3.894,0,2.312,1.331,3.8,3.628,3.8a4.88,4.88,0,0,0,1.989-.393Z"/><path d="M643.085,240.237h-2.871V239.2H647.2v1.037h-2.885v8.4h-1.233Z"/><path d="M659.174,244.494c-.069-1.316-.153-2.9-.139-4.076h-.042c-.323,1.107-.715,2.283-1.191,3.586l-1.667,4.581h-.925l-1.526-4.5c-.448-1.331-.827-2.55-1.093-3.671h-.028c-.028,1.177-.1,2.76-.182,4.175l-.253,4.048h-1.162l.658-9.441h1.555l1.611,4.566c.392,1.163.714,2.2.953,3.18h.042c.238-.953.574-1.989,1-3.18l1.68-4.566h1.555l.588,9.441h-1.191Z"/><path d="M663.693,239.2v9.441h-1.219V239.2Z"/><path d="M670.989,248.641l-1.205-2.087c-.491-.8-.8-1.317-1.092-1.863h-.029c-.266.546-.532,1.051-1.022,1.877l-1.135,2.073h-1.4l2.885-4.776-2.774-4.665h1.415l1.247,2.213c.35.617.616,1.093.868,1.6h.042c.267-.56.5-1,.855-1.6l1.289-2.213h1.4l-2.872,4.594,2.943,4.847Z"/><path d="M678.7,244.215h-3.669v3.4h4.089v1.023h-5.308V239.2h5.1v1.022h-3.879v2.984H678.7Z"/><path d="M680.7,239.326a12.718,12.718,0,0,1,2.34-.2,3.865,3.865,0,0,1,2.732.77,2.357,2.357,0,0,1,.742,1.793,2.478,2.478,0,0,1-1.779,2.409v.042a2.353,2.353,0,0,1,1.386,1.906,15.1,15.1,0,0,0,.729,2.591H685.59a12.245,12.245,0,0,1-.63-2.255c-.28-1.3-.785-1.793-1.891-1.835H681.92v4.09H680.7Zm1.219,4.3h1.247c1.3,0,2.129-.714,2.129-1.793,0-1.218-.883-1.751-2.171-1.765a4.952,4.952,0,0,0-1.205.113Z"/><path d="M137.266,127.182a4.32,4.32,0,0,0,2.185.616c1.247,0,1.975-.658,1.975-1.611,0-.882-.5-1.386-1.779-1.877-1.54-.546-2.493-1.344-2.493-2.675,0-1.471,1.218-2.563,3.053-2.563a4.289,4.289,0,0,1,2.087.462l-.336.995a3.742,3.742,0,0,0-1.793-.449c-1.288,0-1.778.77-1.778,1.415,0,.882.574,1.317,1.877,1.821,1.6.616,2.409,1.386,2.409,2.773,0,1.457-1.079,2.718-3.305,2.718a4.875,4.875,0,0,1-2.411-.6Z"/><path d="M145.065,125.5a2.172,2.172,0,0,0,2.325,2.353,4.441,4.441,0,0,0,1.877-.35l.21.883a5.494,5.494,0,0,1-2.255.42,3.149,3.149,0,0,1-3.334-3.418c0-2.045,1.2-3.656,3.18-3.656,2.213,0,2.8,1.947,2.8,3.194a4.647,4.647,0,0,1-.042.574Zm3.614-.883a1.754,1.754,0,0,0-1.709-2,2.044,2.044,0,0,0-1.892,2Z"/><path d="M151.392,123.722c0-.7-.014-1.274-.056-1.835h1.093l.069,1.121h.029a2.493,2.493,0,0,1,2.241-1.275c.938,0,2.4.56,2.4,2.885v4.049H155.93v-3.908c0-1.093-.406-2-1.568-2a1.753,1.753,0,0,0-1.654,1.26,1.806,1.806,0,0,0-.084.575v4.076h-1.232Z"/><path d="M165.017,118.722v8.194c0,.6.014,1.288.056,1.751h-1.107l-.056-1.177h-.028a2.509,2.509,0,0,1-2.311,1.331c-1.639,0-2.9-1.387-2.9-3.446-.013-2.255,1.387-3.642,3.04-3.642a2.266,2.266,0,0,1,2.045,1.037h.029v-4.048Zm-1.232,5.925a2.19,2.19,0,0,0-.057-.519,1.813,1.813,0,0,0-1.778-1.428c-1.276,0-2.032,1.12-2.032,2.619,0,1.373.672,2.507,2,2.507a1.853,1.853,0,0,0,1.807-1.47,2.152,2.152,0,0,0,.057-.533Z"/><path d="M166.89,127.406a3.233,3.233,0,0,0,1.625.49c.9,0,1.316-.448,1.316-1.008,0-.588-.349-.911-1.26-1.247-1.219-.434-1.793-1.106-1.793-1.919a2.091,2.091,0,0,1,2.34-1.989,3.392,3.392,0,0,1,1.667.42l-.309.9a2.644,2.644,0,0,0-1.387-.392c-.728,0-1.135.42-1.135.924,0,.56.407.812,1.289,1.149,1.177.448,1.779,1.036,1.779,2.045,0,1.191-.924,2.031-2.535,2.031a3.872,3.872,0,0,1-1.906-.462Z"/><path d="M175.4,127.406a3.229,3.229,0,0,0,1.625.49c.9,0,1.316-.448,1.316-1.008,0-.588-.35-.911-1.261-1.247-1.218-.434-1.793-1.106-1.793-1.919a2.092,2.092,0,0,1,2.34-1.989,3.389,3.389,0,0,1,1.667.42l-.308.9a2.644,2.644,0,0,0-1.387-.392c-.729,0-1.135.42-1.135.924,0,.56.406.812,1.289,1.149,1.177.448,1.779,1.036,1.779,2.045,0,1.191-.924,2.031-2.536,2.031a3.871,3.871,0,0,1-1.905-.462Z"/><path d="M182.487,119.982a.764.764,0,0,1-1.528,0,.752.752,0,0,1,.771-.77A.732.732,0,0,1,182.487,119.982Zm-1.373,8.685v-6.78h1.232v6.78Z"/><path d="M190.23,121.887c-.028.49-.056,1.037-.056,1.863v3.936c0,1.555-.308,2.508-.967,3.1a3.593,3.593,0,0,1-2.464.813,4.381,4.381,0,0,1-2.256-.561l.308-.938a3.826,3.826,0,0,0,1.99.532c1.26,0,2.184-.658,2.184-2.367V127.5h-.027a2.419,2.419,0,0,1-2.157,1.135,3.031,3.031,0,0,1-2.886-3.306c0-2.3,1.5-3.6,3.053-3.6a2.255,2.255,0,0,1,2.116,1.177h.028l.056-1.023Zm-1.275,2.676a1.729,1.729,0,0,0-.07-.561,1.775,1.775,0,0,0-1.723-1.3c-1.176,0-2.016.994-2.016,2.563,0,1.331.672,2.438,2,2.438a1.8,1.8,0,0,0,1.709-1.261,2.179,2.179,0,0,0,.1-.659Z"/><path d="M192.131,123.722c0-.7-.013-1.274-.055-1.835h1.092l.07,1.121h.028a2.493,2.493,0,0,1,2.241-1.275c.939,0,2.4.56,2.4,2.885v4.049h-1.234v-3.908c0-1.093-.405-2-1.568-2a1.752,1.752,0,0,0-1.653,1.26,1.778,1.778,0,0,0-.084.575v4.076h-1.233Z"/><path d="M203.655,128.667l-.1-.855h-.042a2.522,2.522,0,0,1-2.073,1.009,1.932,1.932,0,0,1-2.074-1.947c0-1.639,1.458-2.535,4.077-2.522v-.14a1.4,1.4,0,0,0-1.541-1.569,3.383,3.383,0,0,0-1.765.5l-.28-.813a4.209,4.209,0,0,1,2.227-.6c2.074,0,2.577,1.415,2.577,2.774v2.535a9.554,9.554,0,0,0,.113,1.625Zm-.182-3.46c-1.345-.028-2.872.21-2.872,1.527a1.09,1.09,0,0,0,1.163,1.176,1.688,1.688,0,0,0,1.639-1.134,1.286,1.286,0,0,0,.07-.392Z"/><path d="M206.649,118.722h1.232v9.945h-1.232Z"/><path d="M214.406,119.94v1.947h1.764v.939h-1.764v3.656c0,.84.237,1.316.923,1.316a2.743,2.743,0,0,0,.715-.084l.056.925a3.018,3.018,0,0,1-1.093.168,1.7,1.7,0,0,1-1.33-.519,2.5,2.5,0,0,1-.476-1.764v-3.7H212.15v-.939H213.2v-1.625Z"/><path d="M223.607,125.221a3.314,3.314,0,0,1-3.376,3.6,3.224,3.224,0,0,1-3.25-3.488,3.31,3.31,0,0,1,3.362-3.6A3.211,3.211,0,0,1,223.607,125.221Zm-5.379.07c0,1.485.854,2.605,2.058,2.605,1.177,0,2.06-1.106,2.06-2.633,0-1.148-.574-2.605-2.031-2.605S218.228,124,218.228,125.291Z"/><path d="M234.26,125.221a3.314,3.314,0,0,1-3.376,3.6,3.224,3.224,0,0,1-3.25-3.488,3.311,3.311,0,0,1,3.362-3.6A3.211,3.211,0,0,1,234.26,125.221Zm-5.379.07c0,1.485.855,2.605,2.059,2.605,1.177,0,2.059-1.106,2.059-2.633,0-1.148-.574-2.605-2.031-2.605S228.881,124,228.881,125.291Z"/><path d="M235.755,128.667c.028-.463.056-1.149.056-1.751v-8.194h1.219v4.258h.028a2.524,2.524,0,0,1,2.31-1.247c1.682,0,2.873,1.4,2.859,3.46,0,2.423-1.527,3.628-3.04,3.628a2.416,2.416,0,0,1-2.27-1.275h-.042l-.055,1.121Zm1.275-2.717a2.4,2.4,0,0,0,.055.448,1.9,1.9,0,0,0,1.85,1.442c1.288,0,2.058-1.05,2.058-2.605,0-1.359-.7-2.521-2.016-2.521a1.964,1.964,0,0,0-1.877,1.512,2.448,2.448,0,0,0-.07.5Z"/><path d="M242.124,130.628a2,2,0,0,0,1.345-.518c.336-.392.462-.925.462-2.55v-5.673h1.232v6.149a3.72,3.72,0,0,1-.812,2.788,3.129,3.129,0,0,1-2.1.771Zm3.18-10.646a.724.724,0,0,1-.77.757.736.736,0,0,1-.757-.757.754.754,0,0,1,.784-.77A.729.729,0,0,1,245.3,119.982Z"/><path d="M247.865,125.5a2.171,2.171,0,0,0,2.325,2.353,4.441,4.441,0,0,0,1.877-.35l.21.883a5.494,5.494,0,0,1-2.255.42,3.149,3.149,0,0,1-3.334-3.418c0-2.045,1.205-3.656,3.18-3.656,2.212,0,2.8,1.947,2.8,3.194a4.647,4.647,0,0,1-.042.574Zm3.614-.883a1.754,1.754,0,0,0-1.709-2,2.044,2.044,0,0,0-1.892,2Z"/><path d="M259.025,128.415a4.549,4.549,0,0,1-1.948.392,3.222,3.222,0,0,1-3.376-3.46,3.445,3.445,0,0,1,3.642-3.6,4.12,4.12,0,0,1,1.709.35l-.28.953a2.858,2.858,0,0,0-1.429-.322,2.556,2.556,0,0,0-.042,5.1,3.51,3.51,0,0,0,1.514-.336Z"/><path d="M262.131,119.94v1.947H263.9v.939h-1.765v3.656c0,.84.237,1.316.924,1.316a2.75,2.75,0,0,0,.715-.084l.056.925a3.026,3.026,0,0,1-1.093.168,1.7,1.7,0,0,1-1.33-.519,2.5,2.5,0,0,1-.477-1.764v-3.7h-1.051v-.939h1.051v-1.625Z"/><path d="M268.247,123.722c0-.7-.013-1.274-.055-1.835h1.078l.056,1.093h.042a2.335,2.335,0,0,1,2.129-1.247,2,2,0,0,1,1.919,1.359h.029a2.783,2.783,0,0,1,.756-.883,2.313,2.313,0,0,1,1.5-.476c.9,0,2.227.589,2.227,2.942v3.992h-1.205v-3.838c0-1.3-.477-2.087-1.471-2.087a1.6,1.6,0,0,0-1.457,1.12,2.062,2.062,0,0,0-.1.616v4.189h-1.2v-4.062c0-1.079-.476-1.863-1.415-1.863a1.685,1.685,0,0,0-1.527,1.232,1.706,1.706,0,0,0-.1.6v4.091h-1.2Z"/><path d="M281.3,119.982a.764.764,0,0,1-1.527,0,.751.751,0,0,1,.77-.77A.732.732,0,0,1,281.3,119.982Zm-1.373,8.685v-6.78h1.233v6.78Z"/><path d="M283.774,121.887l.967,1.457c.252.378.461.729.686,1.107h.042c.224-.407.448-.757.672-1.121l.953-1.443h1.33l-2.31,3.278,2.38,3.5h-1.4l-1-1.527c-.266-.392-.49-.771-.729-1.177h-.027c-.225.406-.463.771-.715,1.177l-.98,1.527h-1.359l2.41-3.46-2.3-3.32Z"/><path d="M290.158,125.5a2.171,2.171,0,0,0,2.325,2.353,4.441,4.441,0,0,0,1.877-.35l.21.883a5.494,5.494,0,0,1-2.255.42,3.149,3.149,0,0,1-3.334-3.418c0-2.045,1.2-3.656,3.179-3.656,2.213,0,2.8,1.947,2.8,3.194a4.647,4.647,0,0,1-.042.574Zm3.614-.883a1.755,1.755,0,0,0-1.709-2,2.044,2.044,0,0,0-1.892,2Z"/><path d="M296.486,124c0-.8-.014-1.485-.056-2.115h1.078l.042,1.331h.057a2.032,2.032,0,0,1,1.877-1.485,1.33,1.33,0,0,1,.349.042v1.163a1.851,1.851,0,0,0-.42-.042,1.729,1.729,0,0,0-1.653,1.582,3.6,3.6,0,0,0-.056.575v3.614h-1.218Z"/><path class="cls-5" d="M432.052,78.671a14.154,14.154,0,0,1,2.34-.182,3.88,3.88,0,0,1,2.648.784,2.541,2.541,0,0,1,.827,1.975,2.775,2.775,0,0,1-.729,2.017,3.916,3.916,0,0,1-2.887,1.037,4.2,4.2,0,0,1-.98-.084V88h-1.219Zm1.219,4.552a4.1,4.1,0,0,0,1.01.1c1.47,0,2.367-.714,2.367-2.017,0-1.247-.883-1.849-2.229-1.849a5.125,5.125,0,0,0-1.148.1Z"/><path class="cls-5" d="M439.853,85.03,438.872,88h-1.261l3.207-9.441h1.47L445.511,88h-1.3L443.2,85.03Zm3.1-.953-.926-2.717c-.209-.616-.35-1.177-.49-1.722h-.028c-.14.56-.3,1.134-.476,1.708l-.924,2.731Z"/><path class="cls-5" d="M446.892,88V78.559h1.332l3.025,4.776a27.072,27.072,0,0,1,1.7,3.068l.027-.014c-.111-1.261-.141-2.409-.141-3.88v-3.95h1.149V88h-1.233l-3-4.791a29.859,29.859,0,0,1-1.763-3.152l-.043.015c.07,1.19.1,2.325.1,3.894V88Z"/><path class="cls-5" d="M456.105,88V78.559h1.33l3.025,4.776a26.609,26.609,0,0,1,1.7,3.068l.027-.014c-.111-1.261-.139-2.409-.139-3.88v-3.95h1.149V88H461.96l-3-4.791a29.887,29.887,0,0,1-1.765-3.152l-.041.015c.07,1.19.1,2.325.1,3.894V88Z"/><path class="cls-5" d="M470.2,83.574h-3.669v3.4h4.089V88h-5.308V78.559h5.1v1.022h-3.88v2.984H470.2Z"/><path class="cls-5" d="M472.2,78.685a12.694,12.694,0,0,1,2.34-.2,3.86,3.86,0,0,1,2.731.77,2.354,2.354,0,0,1,.742,1.793,2.476,2.476,0,0,1-1.779,2.409V83.5a2.351,2.351,0,0,1,1.386,1.906A15.2,15.2,0,0,0,478.353,88h-1.26a12.209,12.209,0,0,1-.631-2.256c-.279-1.3-.785-1.793-1.89-1.834h-1.149V88H472.2Zm1.219,4.3h1.246c1.3,0,2.129-.714,2.129-1.793,0-1.219-.883-1.751-2.17-1.765a5,5,0,0,0-1.2.112Z"/><path class="cls-5" d="M484.232,85.03,483.251,88H481.99l3.207-9.441h1.47L489.89,88h-1.3l-1.008-2.97Zm3.095-.953L486.4,81.36c-.209-.616-.35-1.177-.491-1.722h-.027c-.141.56-.3,1.134-.476,1.708l-.924,2.731Z"/><path class="cls-5" d="M491.273,88V78.559h1.33l3.025,4.776a26.609,26.609,0,0,1,1.7,3.068l.027-.014c-.111-1.261-.139-2.409-.139-3.88v-3.95h1.149V88h-1.233l-3-4.791a29.887,29.887,0,0,1-1.765-3.152l-.041.015c.07,1.19.1,2.325.1,3.894V88Z"/><path class="cls-5" d="M500.484,78.685a17.464,17.464,0,0,1,2.592-.2,5.413,5.413,0,0,1,3.824,1.176,4.351,4.351,0,0,1,1.33,3.39,4.991,4.991,0,0,1-1.36,3.67,5.811,5.811,0,0,1-4.173,1.359,19.639,19.639,0,0,1-2.213-.112Zm1.218,8.349a7.839,7.839,0,0,0,1.233.069c2.605,0,4.019-1.456,4.019-4.006.014-2.227-1.246-3.642-3.824-3.642a6.935,6.935,0,0,0-1.428.126Z"/><path class="cls-5" d="M438.945,104.848c0,3.25-1.975,4.973-4.383,4.973-2.494,0-4.246-1.933-4.246-4.791,0-3,1.863-4.958,4.385-4.958C437.279,100.072,438.945,102.047,438.945,104.848Zm-7.327.154c0,2.017,1.094,3.824,3.012,3.824,1.934,0,3.028-1.779,3.028-3.922,0-1.877-.983-3.838-3.012-3.838S431.618,102.929,431.618,105Z"/><path class="cls-5" d="M441.966,101.262H439.1v-1.036h6.988v1.036H443.2v8.405h-1.233Z"/><path class="cls-5" d="M448.349,100.226v3.95h4.566v-3.95h1.233v9.441h-1.233v-4.426h-4.566v4.426H447.13v-9.441Z"/><path class="cls-5" d="M461.148,105.241h-3.67v3.4h4.09v1.023h-5.309v-9.441h5.1v1.022h-3.879v2.984h3.67Z"/><path class="cls-5" d="M463.146,100.352a12.718,12.718,0,0,1,2.34-.2,3.868,3.868,0,0,1,2.732.77,2.357,2.357,0,0,1,.742,1.793,2.479,2.479,0,0,1-1.779,2.409v.042a2.356,2.356,0,0,1,1.387,1.906,14.944,14.944,0,0,0,.728,2.591h-1.261a12.1,12.1,0,0,1-.629-2.256c-.282-1.3-.786-1.793-1.893-1.835h-1.148v4.091h-1.219Zm1.219,4.3h1.248c1.3,0,2.129-.714,2.129-1.793,0-1.219-.883-1.751-2.172-1.765a5.028,5.028,0,0,0-1.2.112Z"/><path class="cls-5" d="M473.646,100.352a11.826,11.826,0,0,1,2.228-.2,3.9,3.9,0,0,1,2.59.686,1.98,1.98,0,0,1,.785,1.667,2.24,2.24,0,0,1-1.6,2.073v.028a2.433,2.433,0,0,1,1.947,2.367,2.547,2.547,0,0,1-.8,1.891,4.745,4.745,0,0,1-3.264.883,14.262,14.262,0,0,1-1.892-.112Zm1.219,3.866h1.107c1.289,0,2.045-.672,2.045-1.583,0-1.106-.84-1.541-2.072-1.541a5.249,5.249,0,0,0-1.08.084Zm0,4.525a6.529,6.529,0,0,0,1.023.055c1.26,0,2.424-.462,2.424-1.835,0-1.288-1.108-1.821-2.438-1.821h-1.009Z"/><path class="cls-5" d="M482.452,100.226v5.589c0,2.115.94,3.011,2.2,3.011,1.4,0,2.3-.924,2.3-3.011v-5.589h1.234v5.5c0,2.9-1.527,4.09-3.572,4.09-1.934,0-3.391-1.107-3.391-4.034v-5.561Z"/><path class="cls-5" d="M490.124,108.182a4.315,4.315,0,0,0,2.186.616c1.246,0,1.975-.658,1.975-1.611,0-.882-.5-1.386-1.78-1.877-1.541-.546-2.494-1.344-2.494-2.675,0-1.471,1.219-2.563,3.055-2.563a4.284,4.284,0,0,1,2.086.462l-.336.995a3.742,3.742,0,0,0-1.793-.449c-1.287,0-1.778.77-1.778,1.415,0,.882.575,1.317,1.877,1.821,1.6.616,2.409,1.386,2.409,2.773,0,1.457-1.079,2.718-3.305,2.718a4.868,4.868,0,0,1-2.41-.6Z"/><path class="cls-5" d="M502.083,105.241h-3.67v3.4h4.09v1.023H497.2v-9.441h5.1v1.022h-3.879v2.984h3.67Z"/><path class="cls-5" d="M503.913,108.182a4.327,4.327,0,0,0,2.186.616c1.246,0,1.975-.658,1.975-1.611,0-.882-.5-1.386-1.78-1.877-1.539-.546-2.492-1.344-2.492-2.675,0-1.471,1.219-2.563,3.053-2.563a4.293,4.293,0,0,1,2.088.462l-.336.995a3.756,3.756,0,0,0-1.793-.449c-1.289,0-1.779.77-1.779,1.415,0,.882.574,1.317,1.876,1.821,1.6.616,2.411,1.386,2.411,2.773,0,1.457-1.08,2.718-3.307,2.718a4.879,4.879,0,0,1-2.41-.6Z"/><path class="cls-5" d="M323.308,102.07a4.32,4.32,0,0,0,2.185.616c1.247,0,1.975-.658,1.975-1.611,0-.882-.5-1.387-1.779-1.877-1.54-.546-2.493-1.345-2.493-2.675,0-1.471,1.218-2.564,3.053-2.564a4.276,4.276,0,0,1,2.087.463l-.336.994a3.756,3.756,0,0,0-1.793-.448c-1.288,0-1.778.77-1.778,1.415,0,.882.574,1.317,1.877,1.82,1.6.617,2.409,1.387,2.409,2.774,0,1.457-1.079,2.718-3.3,2.718a4.875,4.875,0,0,1-2.411-.6Z"/><path class="cls-5" d="M331.6,94.114v9.441h-1.219V94.114Z"/><path class="cls-5" d="M340.91,103.134a8.794,8.794,0,0,1-2.9.519,4.436,4.436,0,0,1-4.847-4.763,4.737,4.737,0,0,1,5.114-4.875,5.818,5.818,0,0,1,2.353.435l-.3.994a4.893,4.893,0,0,0-2.087-.406,3.531,3.531,0,0,0-3.8,3.8,3.461,3.461,0,0,0,3.642,3.81,3.974,3.974,0,0,0,1.625-.252V99.576H337.8V98.6h3.11Z"/><path class="cls-5" d="M342.768,103.555V94.114H344.1l3.025,4.776a26.678,26.678,0,0,1,1.7,3.068l.027-.014c-.111-1.261-.14-2.409-.14-3.88v-3.95h1.149v9.441h-1.233l-3-4.791a29.973,29.973,0,0,1-1.764-3.152l-.042.014c.07,1.191.1,2.325.1,3.894v4.035Z"/><path class="cls-5" d="M353.507,100.585l-.98,2.97h-1.261l3.207-9.441h1.471l3.221,9.441h-1.3l-1.008-2.97Zm3.1-.953-.925-2.717c-.21-.616-.351-1.177-.49-1.723h-.028c-.14.56-.294,1.134-.477,1.709l-.924,2.731Z"/><path class="cls-5" d="M360.547,94.114h1.219v8.418H365.8v1.023h-5.253Z"/><polygon class="cls-3" points="317.833 113.833 384.833 113.833 384.833 123.048 407.53 99.836 384.833 76.619 384.833 85.833 317.833 85.833 317.833 113.833"/><path class="cls-5" d="M534.393,102.845a4.32,4.32,0,0,0,2.185.616c1.247,0,1.975-.658,1.975-1.611,0-.882-.5-1.386-1.779-1.877-1.54-.546-2.493-1.344-2.493-2.675,0-1.471,1.218-2.563,3.053-2.563a4.289,4.289,0,0,1,2.087.462l-.336.995a3.742,3.742,0,0,0-1.793-.449c-1.288,0-1.778.771-1.778,1.415,0,.882.574,1.317,1.877,1.821,1.6.617,2.409,1.387,2.409,2.773,0,1.457-1.079,2.718-3.306,2.718a4.885,4.885,0,0,1-2.41-.6Z"/><path class="cls-5" d="M542.682,94.889v9.441h-1.219V94.889Z"/><path class="cls-5" d="M551.994,103.91a8.787,8.787,0,0,1-2.9.518,4.436,4.436,0,0,1-4.847-4.763,4.736,4.736,0,0,1,5.114-4.874,5.839,5.839,0,0,1,2.353.434l-.3,1a4.876,4.876,0,0,0-2.087-.407,3.531,3.531,0,0,0-3.8,3.8,3.46,3.46,0,0,0,3.642,3.81,3.974,3.974,0,0,0,1.625-.252v-2.815h-1.919v-.981h3.109Z"/><path class="cls-5" d="M553.853,104.33V94.889h1.331l3.025,4.776a26.762,26.762,0,0,1,1.7,3.068l.027-.014c-.111-1.261-.14-2.409-.14-3.88v-3.95h1.149v9.441h-1.233l-3-4.791a29.962,29.962,0,0,1-1.764-3.151l-.042.014c.07,1.19.1,2.325.1,3.894v4.034Z"/><path class="cls-5" d="M564.592,101.36l-.98,2.97h-1.261l3.207-9.441h1.471l3.221,9.441h-1.3l-1.008-2.97Zm3.1-.952-.925-2.718c-.21-.616-.351-1.176-.49-1.722h-.029c-.139.56-.293,1.134-.476,1.708l-.924,2.732Z"/><path class="cls-5" d="M571.632,94.889h1.219v8.418h4.034v1.023h-5.253Z"/><polygon class="cls-3" points="527.833 113.833 594.833 113.833 594.833 123.048 617.53 99.836 594.833 76.619 594.833 85.833 527.833 85.833 527.833 113.833"/><path d="M38.476,102.775a4.31,4.31,0,0,0,2.185.616c1.247,0,1.975-.658,1.975-1.61,0-.883-.5-1.387-1.779-1.877-1.54-.547-2.493-1.345-2.493-2.676,0-1.47,1.218-2.563,3.053-2.563a4.289,4.289,0,0,1,2.087.462l-.336,1a3.744,3.744,0,0,0-1.793-.448c-1.288,0-1.778.77-1.778,1.414,0,.883.574,1.317,1.877,1.821,1.6.617,2.409,1.387,2.409,2.773,0,1.457-1.079,2.718-3.306,2.718a4.885,4.885,0,0,1-2.41-.6Z"/><path d="M46.765,94.819v9.441H45.546V94.819Z"/><path d="M56.077,103.84a8.787,8.787,0,0,1-2.9.518A4.435,4.435,0,0,1,48.331,99.6a4.737,4.737,0,0,1,5.114-4.875,5.839,5.839,0,0,1,2.353.434l-.3,1a4.891,4.891,0,0,0-2.087-.407,3.531,3.531,0,0,0-3.8,3.8,3.46,3.46,0,0,0,3.642,3.81,3.957,3.957,0,0,0,1.625-.252v-2.815H52.968V99.3h3.109Z"/><path d="M57.936,104.26V94.819h1.331L62.292,99.6a26.754,26.754,0,0,1,1.7,3.067l.027-.014c-.111-1.26-.14-2.409-.14-3.88v-3.95h1.149v9.441H63.791l-3-4.79a30.074,30.074,0,0,1-1.764-3.152l-.042.014c.07,1.19.1,2.325.1,3.894v4.034Z"/><path d="M68.675,101.29l-.98,2.97H66.434l3.207-9.441h1.471l3.221,9.441h-1.3l-1.008-2.97Zm3.1-.952-.925-2.718c-.21-.616-.351-1.176-.49-1.722h-.029c-.139.56-.293,1.134-.476,1.708l-.924,2.732Z"/><path d="M75.715,94.819h1.219v8.419h4.034v1.022H75.715Z"/><polygon class="cls-1" points="30.833 113.833 97.833 113.833 97.833 123.048 120.53 99.836 97.833 76.619 97.833 85.833 30.833 85.833 30.833 113.833"/><rect class="cls-1" x="837.833" y="43.833" width="112" height="107"/><path d="M848.377,95.029v3.95h4.567v-3.95h1.232v9.441h-1.232v-4.426h-4.567v4.426h-1.218V95.029Z"/><path d="M857.814,101.5l-.981,2.97h-1.26l3.207-9.441h1.47l3.222,9.441h-1.3l-1.009-2.97Zm3.1-.952-.925-2.718c-.21-.616-.351-1.176-.491-1.722h-.028c-.14.56-.294,1.134-.476,1.708l-.924,2.732Z"/><path d="M864.855,95.155a12.7,12.7,0,0,1,2.34-.2,3.865,3.865,0,0,1,2.731.77,2.354,2.354,0,0,1,.742,1.793,2.477,2.477,0,0,1-1.779,2.409v.042a2.354,2.354,0,0,1,1.387,1.906A15.039,15.039,0,0,0,871,104.47h-1.261a12.19,12.19,0,0,1-.629-2.255c-.281-1.3-.786-1.793-1.892-1.835h-1.148v4.09h-1.219Zm1.219,4.3h1.247c1.3,0,2.129-.714,2.129-1.793,0-1.218-.883-1.751-2.171-1.765a4.946,4.946,0,0,0-1.205.113Z"/><path d="M872.386,95.155a17.464,17.464,0,0,1,2.592-.2,5.4,5.4,0,0,1,3.824,1.177,4.347,4.347,0,0,1,1.33,3.389,4.99,4.99,0,0,1-1.358,3.67,5.817,5.817,0,0,1-4.175,1.359,19.679,19.679,0,0,1-2.213-.112Zm1.219,8.349a7.818,7.818,0,0,0,1.232.07c2.606,0,4.021-1.457,4.021-4.007.013-2.227-1.247-3.641-3.824-3.641a6.862,6.862,0,0,0-1.429.126Z"/><path d="M883.251,104.47l-2.395-9.441h1.289l1.12,4.777c.28,1.176.532,2.353.7,3.263h.028c.155-.938.449-2.059.771-3.278l1.261-4.762H887.3l1.149,4.791c.266,1.12.518,2.241.659,3.236h.027c.2-1.037.463-2.088.757-3.265l1.246-4.762h1.247l-2.676,9.441h-1.274l-1.191-4.916a28.731,28.731,0,0,1-.616-3.082H886.6a29.339,29.339,0,0,1-.729,3.082l-1.344,4.916Z"/><path d="M894.284,101.5l-.981,2.97h-1.261l3.207-9.441h1.471l3.222,9.441h-1.3l-1.008-2.97Zm3.1-.952-.925-2.718c-.21-.616-.35-1.176-.49-1.722h-.028c-.14.56-.294,1.134-.477,1.708l-.924,2.732Z"/><path d="M901.325,95.155a12.7,12.7,0,0,1,2.339-.2,3.865,3.865,0,0,1,2.732.77,2.357,2.357,0,0,1,.742,1.793,2.477,2.477,0,0,1-1.779,2.409v.042a2.353,2.353,0,0,1,1.386,1.906,15.1,15.1,0,0,0,.729,2.591h-1.261a12.245,12.245,0,0,1-.63-2.255c-.28-1.3-.785-1.793-1.891-1.835h-1.149v4.09h-1.218Zm1.218,4.3h1.247c1.3,0,2.129-.714,2.129-1.793,0-1.218-.883-1.751-2.171-1.765a4.959,4.959,0,0,0-1.205.113Z"/><path d="M913.744,100.044h-3.669v3.4h4.089v1.022h-5.308V95.029h5.1v1.023h-3.879v2.983h3.669Z"/><path d="M917.634,105.03l3.908-10.155h.952l-3.921,10.155Z"/><path d="M934.55,99.651c0,3.25-1.974,4.973-4.384,4.973-2.494,0-4.245-1.933-4.245-4.791,0-3,1.864-4.958,4.385-4.958C932.883,94.875,934.55,96.85,934.55,99.651Zm-7.326.155c0,2.017,1.093,3.824,3.012,3.824s3.026-1.78,3.026-3.923c0-1.877-.981-3.838-3.012-3.838S927.224,97.732,927.224,99.806Z"/><path d="M935.959,102.985a4.311,4.311,0,0,0,2.186.616c1.246,0,1.974-.658,1.974-1.61,0-.883-.5-1.387-1.779-1.877-1.54-.547-2.493-1.345-2.493-2.676,0-1.47,1.219-2.563,3.054-2.563a4.289,4.289,0,0,1,2.087.462l-.336.995a3.751,3.751,0,0,0-1.793-.448c-1.288,0-1.779.77-1.779,1.414,0,.883.575,1.317,1.877,1.821,1.6.617,2.41,1.387,2.41,2.773,0,1.457-1.08,2.718-3.306,2.718a4.885,4.885,0,0,1-2.41-.6Z"/><path class="cls-5" d="M749.156,102a4.3,4.3,0,0,0,2.185.617c1.246,0,1.975-.659,1.975-1.611,0-.883-.5-1.387-1.78-1.877-1.541-.547-2.494-1.345-2.494-2.675,0-1.471,1.219-2.564,3.055-2.564a4.284,4.284,0,0,1,2.086.462l-.336,1a3.752,3.752,0,0,0-1.793-.448c-1.287,0-1.777.77-1.777,1.414,0,.883.574,1.317,1.877,1.821,1.6.617,2.408,1.387,2.408,2.774,0,1.457-1.078,2.717-3.305,2.717a4.879,4.879,0,0,1-2.41-.6Z"/><path class="cls-5" d="M757.445,94.04v9.441h-1.219V94.04Z"/><path class="cls-5" d="M766.757,103.061a8.805,8.805,0,0,1-2.9.518,4.432,4.432,0,0,1-4.846-4.762,4.735,4.735,0,0,1,5.113-4.875,5.845,5.845,0,0,1,2.354.434l-.295.995a4.9,4.9,0,0,0-2.088-.406,3.53,3.53,0,0,0-3.8,3.8,3.46,3.46,0,0,0,3.641,3.81,3.974,3.974,0,0,0,1.625-.252V99.5h-1.918v-.98h3.109Z"/><path class="cls-5" d="M768.615,103.481V94.04h1.332l3.025,4.777a26.968,26.968,0,0,1,1.7,3.068l.028-.015c-.112-1.26-.141-2.409-.141-3.879V94.04H775.7v9.441H774.47l-3-4.79a30.256,30.256,0,0,1-1.764-3.152l-.043.014c.071,1.19.1,2.325.1,3.894v4.034Z"/><path class="cls-5" d="M779.355,100.512l-.981,2.969h-1.261l3.207-9.441h1.47l3.223,9.441h-1.3l-1.008-2.969Zm3.1-.953-.926-2.717c-.209-.617-.35-1.177-.49-1.723h-.028c-.14.56-.295,1.134-.476,1.708l-.924,2.732Z"/><path class="cls-5" d="M786.394,94.04h1.219v8.419h4.035v1.022h-5.254Z"/><polygon class="cls-3" points="741.833 112.833 808.833 112.833 808.833 122.048 831.53 98.836 808.833 75.619 808.833 84.833 741.833 84.833 741.833 112.833"/></svg>